<mxfile host="65bd71144e" scale="1" border="0" disableSvgWarning="true">
    <diagram id="-jjQkb2CXfaVrQBBxeze" name="Page-1">
        <mxGraphModel dx="1047" dy="605" grid="1" gridSize="10" guides="1" tooltips="1" connect="1" arrows="1" fold="1" page="1" pageScale="1" pageWidth="827" pageHeight="1169" math="0" shadow="0">
            <root>
                <mxCell id="0"/>
                <mxCell id="1" parent="0"/>
                <mxCell id="10" value="" style="endArrow=none;dashed=1;html=1;fontFamily=Times New Roman;fontSize=16;fontStyle=0;fontColor=#000000;labelBackgroundColor=none;exitX=0;exitY=0.5;exitDx=0;exitDy=0;" parent="1" edge="1" source="9">
                    <mxGeometry width="50" height="50" relative="1" as="geometry">
                        <mxPoint x="40" y="335" as="sourcePoint"/>
                        <mxPoint x="760.32001953125" y="335" as="targetPoint"/>
                    </mxGeometry>
                </mxCell>
                <mxCell id="20" value="&lt;font style=&quot;font-size: 16px;&quot;&gt;&lt;span style=&quot;font-size: 16px;&quot;&gt;syscalls&lt;/span&gt;&lt;/font&gt;" style="text;html=1;align=center;verticalAlign=middle;resizable=0;points=[];autosize=1;strokeColor=none;fillColor=#FFFFFF;fontFamily=Times New Roman;fontColor=#000000;fontStyle=0;fontSize=16;labelBackgroundColor=none;" parent="1" vertex="1">
                    <mxGeometry x="365" y="320" width="70" height="30" as="geometry"/>
                </mxCell>
                <mxCell id="2" value="hardware" style="rounded=0;whiteSpace=wrap;html=1;gradientColor=none;fillColor=#4B8EDD;fontSize=16;fontFamily=Times New Roman;fontStyle=0;fontColor=#000000;labelBackgroundColor=none;strokeColor=none;" parent="1" vertex="1">
                    <mxGeometry x="120" y="500" width="560" height="30" as="geometry"/>
                </mxCell>
                <mxCell id="3" value="Interrupt Pipeline" style="rounded=1;whiteSpace=wrap;html=1;fontFamily=Times New Roman;fontSize=16;fillColor=#1BA1E2;gradientColor=none;fontStyle=0;strokeColor=none;fontColor=#000000;labelBackgroundColor=none;" parent="1" vertex="1">
                    <mxGeometry x="220" y="450" width="360" height="30" as="geometry"/>
                </mxCell>
                <mxCell id="4" value="Cobalt Kernel" style="rounded=1;whiteSpace=wrap;html=1;fontFamily=Times New Roman;fontSize=16;fillColor=#1BA1E2;gradientColor=none;fontStyle=0;strokeColor=none;fontColor=#000000;labelBackgroundColor=none;" parent="1" vertex="1">
                    <mxGeometry x="220" y="370" width="170" height="60" as="geometry"/>
                </mxCell>
                <mxCell id="5" value="Linux Kernel" style="rounded=1;whiteSpace=wrap;html=1;fontFamily=Times New Roman;fontSize=16;fillColor=#00BCE6;fontStyle=0;fontColor=#000000;strokeColor=none;labelBackgroundColor=none;" parent="1" vertex="1">
                    <mxGeometry x="409" y="370" width="171" height="60" as="geometry"/>
                </mxCell>
                <mxCell id="7" value="RTDM" style="rounded=1;whiteSpace=wrap;html=1;fontFamily=Times New Roman;fontSize=16;fillColor=#1BA1E2;gradientColor=none;fontStyle=0;strokeColor=none;fontColor=#000000;labelBackgroundColor=none;" parent="1" vertex="1">
                    <mxGeometry x="120" y="370" width="80" height="110" as="geometry"/>
                </mxCell>
                <mxCell id="8" value="Device&#10;Driver" style="text;strokeColor=none;fillColor=#00BCE6;align=center;verticalAlign=middle;spacingLeft=4;spacingRight=4;overflow=hidden;rotatable=0;points=[[0,0.5],[1,0.5]];portConstraint=eastwest;fontFamily=Times New Roman;fontSize=16;textDirection=ltr;fontStyle=0;rounded=1;fontColor=#000000;labelBackgroundColor=none;" parent="1" vertex="1">
                    <mxGeometry x="600" y="370" width="80" height="110" as="geometry"/>
                </mxCell>
                <mxCell id="11" value="libcobalt" style="rounded=1;whiteSpace=wrap;html=1;fontFamily=Times New Roman;fontSize=16;fillColor=#A4F389;gradientColor=none;fontStyle=0;gradientDirection=radial;strokeColor=none;fontColor=#000000;labelBackgroundColor=none;" parent="1" vertex="1">
                    <mxGeometry x="120" y="240" width="270" height="60" as="geometry"/>
                </mxCell>
                <mxCell id="13" value="libc" style="rounded=1;whiteSpace=wrap;html=1;fontFamily=Times New Roman;fontSize=16;fillColor=#3EE6AF;fontStyle=0;fontColor=#000000;strokeColor=none;labelBackgroundColor=none;" parent="1" vertex="1">
                    <mxGeometry x="410" y="240" width="270" height="60" as="geometry"/>
                </mxCell>
                <mxCell id="14" value="Linux APP" style="rounded=1;fontFamily=Times New Roman;fontSize=16;fillColor=#3EE6AF;fontStyle=0;textDirection=ltr;html=1;whiteSpace=wrap;fontColor=#000000;strokeColor=none;labelBackgroundColor=none;" parent="1" vertex="1">
                    <mxGeometry x="560" y="160" width="120" height="60" as="geometry"/>
                </mxCell>
                <mxCell id="15" value="Linux APP" style="rounded=1;whiteSpace=wrap;html=1;fontFamily=Times New Roman;fontSize=16;fontStyle=0;fillColor=#3EE6AF;fontColor=#000000;strokeColor=none;labelBackgroundColor=none;" parent="1" vertex="1">
                    <mxGeometry x="409" y="160" width="120" height="60" as="geometry"/>
                </mxCell>
                <mxCell id="16" value="Xenomai APP" style="rounded=1;whiteSpace=wrap;html=1;fontFamily=Times New Roman;fontSize=16;fillColor=#A4F389;gradientColor=none;fontStyle=0;fillStyle=auto;strokeColor=none;fontColor=#000000;labelBackgroundColor=none;" parent="1" vertex="1">
                    <mxGeometry x="120" y="160" width="120" height="60" as="geometry"/>
                </mxCell>
                <mxCell id="17" value="Xenomai APP" style="rounded=1;whiteSpace=wrap;html=1;fontFamily=Times New Roman;fontSize=16;fillColor=#A4F389;gradientColor=none;fontStyle=0;fillStyle=auto;strokeColor=none;fontColor=#000000;labelBackgroundColor=none;" parent="1" vertex="1">
                    <mxGeometry x="270" y="160" width="120" height="60" as="geometry"/>
                </mxCell>
                <mxCell id="18" value="User&#10;Space" style="text;strokeColor=none;fillColor=none;align=center;verticalAlign=middle;spacingLeft=4;spacingRight=4;overflow=hidden;rotatable=0;points=[[0,0.5],[1,0.5]];portConstraint=eastwest;fontFamily=Times New Roman;fontSize=16;textDirection=ltr;fontStyle=0;fontColor=#000000;labelBackgroundColor=none;" parent="1" vertex="1">
                    <mxGeometry x="690" y="210" width="70" height="50" as="geometry"/>
                </mxCell>
                <mxCell id="19" value="Kernel&#10;Space" style="text;strokeColor=none;fillColor=none;align=center;verticalAlign=middle;spacingLeft=4;spacingRight=4;overflow=hidden;rotatable=0;points=[[0,0.5],[1,0.5]];portConstraint=eastwest;fontFamily=Times New Roman;fontSize=16;textDirection=ltr;fontStyle=0;fontColor=#000000;labelBackgroundColor=none;" parent="1" vertex="1">
                    <mxGeometry x="685" y="395" width="80" height="60" as="geometry"/>
                </mxCell>
                <mxCell id="9" value="syscalls" style="rounded=0;whiteSpace=wrap;html=1;fontFamily=Times New Roman;fontSize=16;fillColor=#00D4D3;gradientColor=none;fontStyle=0;fontColor=#000000;labelBackgroundColor=none;strokeColor=none;" parent="1" vertex="1">
                    <mxGeometry x="120" y="320" width="560" height="30" as="geometry"/>
                </mxCell>
            </root>
        </mxGraphModel>
    </diagram>
</mxfile>